<?xml version="1.0" encoding="utf-8"?>
<!-- Generator: Adobe Illustrator 28.1.0, SVG Export Plug-In . SVG Version: 6.00 Build 0)  -->
<svg version="1.1" id="Layer_1" xmlns="http://www.w3.org/2000/svg" xmlns:xlink="http://www.w3.org/1999/xlink" x="0px" y="0px"
	 viewBox="0 0 432 432" style="enable-background:new 0 0 432 432;" xml:space="preserve">
<style type="text/css">
	.st0{fill:#F5CF5D;}
	.st1{fill:#F2C335;}
	.st2{fill:#A58114;}
	.st3{clip-path:url(#XMLID_00000144332987800427842310000009574087689975450267_);fill:#594A42;}
	.st4{fill:#FCF3D7;}
	.st5{fill:#A63921;}
	.st6{fill:#231F20;}
	.st7{clip-path:url(#XMLID_00000017513512098073927390000004674448265293225660_);fill:#594A42;}
</style>
<g>
	<rect x="199.5106" y="199.7902" class="st0" width="40.4255" height="62.679"/>
	<path class="st1" d="M246.7421,239.3743h-57.897c-29.3398,0-53.3451-24.0053-53.3451-53.3451V91.6978c0-6.6,5.4-12,12-12h140.5871
		c6.6,0,12,5.4,12,12v94.3314C300.0872,215.369,276.0819,239.3743,246.7421,239.3743z"/>
	<path class="st2" d="M277.6239,194.1446H157.9634c-6.6,0-12-5.4-12-12v-74.3649c0-6.6,5.4-12,12-12h119.6605c6.6,0,12,5.4,12,12
		v74.3649C289.6239,188.7446,284.2239,194.1446,277.6239,194.1446z"/>
	<g>
		<defs>
			
				<rect id="XMLID_00000007418101771542468250000009880730022964419255_" x="246.8816" y="118.1593" width="17.5824" height="49.4506"/>
		</defs>
		<use xlink:href="#XMLID_00000007418101771542468250000009880730022964419255_"  style="overflow:visible;fill:#FFFFFF;"/>
		<clipPath id="XMLID_00000182527151738114003100000016855627161832252306_">
			<use xlink:href="#XMLID_00000007418101771542468250000009880730022964419255_"  style="overflow:visible;"/>
		</clipPath>
		<path style="clip-path:url(#XMLID_00000182527151738114003100000016855627161832252306_);fill:#594A42;" d="M264.464,167.6099
			h-17.5824v-33.1736c0-4.8552,3.936-8.7912,8.7912-8.7912h0c4.8553,0,8.7912,3.936,8.7912,8.7912V167.6099z"/>
	</g>
	<circle class="st4" cx="217.7937" cy="167.6099" r="13.9165"/>
	<path class="st4" d="M230.9079,225.6895h-26.2284v-8.0148c0-7.122,5.7736-12.8956,12.8956-12.8956h0.4372
		c7.122,0,12.8956,5.7736,12.8956,12.8956V225.6895z"/>
	<path class="st5" d="M303.6002,66.1992c0.7183,0,1.4186,0.0504,2.1031,0.1325c0.0001-0.0443,0.0025-0.0882,0.0025-0.1325
		c0-33.5795-40.6094-60.8011-90.7036-60.8011s-90.7036,27.2216-90.7036,60.8011c0,0.0443,0.0024,0.0882,0.0025,0.1325
		c0.6844-0.0821,1.3848-0.1325,2.1031-0.1325H303.6002z"/>
	<path class="st4" d="M305.7032,66.3318c-0.6844-0.1225-1.3848-0.1977-2.1031-0.1977H126.4042
		c-0.7183,0-1.4186,0.0752-2.1031,0.1977c-5.6046,1.0031-9.8969,5.9205-9.8969,11.8023c0,6.6,5.4,12,12,12h1.1104h174.9751h1.1104
		c6.6,0,12-5.4,12-12C315.6002,72.2523,311.3079,67.3348,305.7032,66.3318z"/>
	<ellipse class="st6" cx="255.739" cy="148.4816" rx="4.8203" ry="8.5252"/>
	<g>
		<defs>
			
				<rect id="XMLID_00000114044674896221648440000009841846869020459704_" x="170.4405" y="118.1593" width="17.5824" height="49.4506"/>
		</defs>
		<use xlink:href="#XMLID_00000114044674896221648440000009841846869020459704_"  style="overflow:visible;fill:#FFFFFF;"/>
		<clipPath id="XMLID_00000114771894604697202800000014516348271130027653_">
			<use xlink:href="#XMLID_00000114044674896221648440000009841846869020459704_"  style="overflow:visible;"/>
		</clipPath>
		<path style="clip-path:url(#XMLID_00000114771894604697202800000014516348271130027653_);fill:#594A42;" d="M188.0229,167.6099
			h-17.5824v-33.1736c0-4.8552,3.936-8.7912,8.7912-8.7912h0c4.8553,0,8.7912,3.936,8.7912,8.7912V167.6099z"/>
	</g>
	<ellipse class="st6" cx="179.2979" cy="148.4816" rx="4.8203" ry="8.5252"/>
	<path class="st0" d="M300.0872,426.6018H135.5001V267.5965c0-10.3025,8.3518-18.6543,18.6543-18.6543H281.433
		c10.3025,0,18.6543,8.3518,18.6543,18.6543V426.6018z"/>
</g>
</svg>
